<svg width="18" height="18" viewBox="0 0 18 18" fill="none" xmlns="http://www.w3.org/2000/svg">
<path d="M15.8625 6.79245L17.325 5.20755C18.225 4.41509 18.225 2.83019 17.325 1.92453L15.975 0.679245C15.1875 -0.226415 13.6125 -0.226415 12.7125 0.679245L11.1375 2.15094L0.7875 12.4528C0.7875 12.566 0.675 12.6792 0.675 12.7925L0 17.3208C0 17.5472 -1.08965e-07 17.6604 0.1125 17.8868C0.225 17.8868 0.45 18 0.5625 18L5.0625 17.3208C5.175 17.3208 5.2875 17.3208 5.4 17.2075L15.8625 6.79245ZM6.075 14.8302L3.15 11.8868L11.5875 3.39623L14.5125 6.33962L6.075 14.8302ZM4.8375 16.0755L1.35 16.6415L1.9125 13.1321L2.25 12.7925L5.175 15.7358L4.8375 16.0755ZM16.5375 4.30189L15.4125 5.43396L12.4875 2.49057L13.6125 1.35849C14.0625 0.905661 14.7375 0.905661 15.3 1.35849L16.65 2.60377C17.1 3.16981 17.1 3.84906 16.5375 4.30189Z" fill="white"/>
</svg>
