<svg width="24" height="24" viewBox="0 0 24 24" fill="none" xmlns="http://www.w3.org/2000/svg">
<path d="M20.3447 4.79297H7.44814C5.98408 4.79297 4.79297 5.98408 4.79297 7.44814V20.3447C4.79297 21.8088 5.98408 22.9999 7.44814 22.9999H20.3447C21.8088 22.9999 22.9999 21.8088 22.9999 20.3447V7.44814C22.9999 5.98408 21.8088 4.79297 20.3447 4.79297ZM22.2412 20.3447C22.2412 21.3878 21.3878 22.2412 20.3447 22.2412H7.44814C6.40504 22.2412 5.55159 21.3878 5.55159 20.3447V7.44814C5.55159 6.40504 6.40504 5.55159 7.44814 5.55159H20.3447C21.3878 5.55159 22.2412 6.40504 22.2412 7.44814V20.3447Z" fill="white" stroke="white" stroke-width="1.5"/>
<path d="M3.65517 17.6897H3.27586C2.43908 17.6897 1.75862 17.009 1.75862 16.1724V3.27586C1.75862 2.43927 2.43908 1.75862 3.27586 1.75862H16.1724C17.0092 1.75862 17.6897 2.43927 17.6897 3.27586V3.65517C17.6897 3.86465 17.8593 4.03448 18.069 4.03448C18.2786 4.03448 18.4483 3.86465 18.4483 3.65517V3.27586C18.4483 2.02088 17.4274 1 16.1724 1H3.27586C2.02088 1 1 2.02088 1 3.27586V16.1724C1 17.4274 2.02088 18.4483 3.27586 18.4483H3.65517C3.86483 18.4483 4.03448 18.2784 4.03448 18.069C4.03448 17.8595 3.86483 17.6897 3.65517 17.6897Z" fill="white" stroke="white" stroke-width="1.5"/>
</svg>
