<svg width="22" height="19" viewBox="0 0 22 19" fill="none" xmlns="http://www.w3.org/2000/svg">
<path d="M20.6 17.1907H19.4V7.07509C19.4 6.53853 19.1893 6.02394 18.8142 5.64452C18.4391 5.26511 17.9304 5.05196 17.4 5.05196H12.6C12.8607 4.70232 13.0012 4.27602 13 3.83808C12.9998 3.44461 12.8862 3.05973 12.673 2.73058C12.4599 2.40143 12.1565 2.14229 11.8 1.9849L12.088 1.69357C12.1633 1.61737 12.2056 1.51403 12.2056 1.40628C12.2056 1.29853 12.1633 1.19519 12.088 1.119C12.0127 1.0428 11.9105 1 11.804 1C11.6975 1 11.5953 1.0428 11.52 1.119L10.816 1.81495C10.4584 1.84329 10.1151 1.96915 9.82265 2.17914C9.53016 2.38913 9.29942 2.6754 9.15497 3.00749C9.01052 3.33959 8.95777 3.70508 9.00232 4.06508C9.04688 4.42509 9.18708 4.76614 9.408 5.05196H4.608C4.34468 5.0509 4.08375 5.10244 3.84018 5.20364C3.5966 5.30483 3.37518 5.45368 3.18861 5.64166C3.00205 5.82963 2.85401 6.05302 2.753 6.299C2.65199 6.54499 2.6 6.80873 2.6 7.07509V17.1907H1.4C1.29391 17.1907 1.19217 17.2334 1.11716 17.3093C1.04214 17.3851 1 17.4881 1 17.5954C1 17.7027 1.04214 17.8056 1.11716 17.8815C1.19217 17.9574 1.29391 18 1.4 18H20.6C20.7061 18 20.8078 17.9574 20.8828 17.8815C20.9579 17.8056 21 17.7027 21 17.5954C21 17.4881 20.9579 17.3851 20.8828 17.3093C20.8078 17.2334 20.7061 17.1907 20.6 17.1907ZM9.8 3.83808C9.8 3.598 9.87038 3.36331 10.0022 3.16369C10.1341 2.96407 10.3215 2.80848 10.5408 2.71661C10.7601 2.62473 11.0013 2.60069 11.2341 2.64753C11.4669 2.69437 11.6807 2.80998 11.8485 2.97974C12.0164 3.14951 12.1306 3.3658 12.1769 3.60127C12.2232 3.83674 12.1995 4.08081 12.1087 4.30262C12.0178 4.52442 11.864 4.71401 11.6667 4.84739C11.4693 4.98077 11.2373 5.05196 11 5.05196C10.6817 5.05196 10.3765 4.92407 10.1515 4.69643C9.92643 4.46878 9.8 4.16003 9.8 3.83808ZM4.6 5.86122H17.4C17.7183 5.86122 18.0235 5.98911 18.2485 6.21675C18.4736 6.4444 18.6 6.75315 18.6 7.07509V9.04967C18.2404 8.92761 17.9217 8.70615 17.68 8.41036C16.504 7.22076 15.224 7.08319 13.912 8.41036C13.048 9.27626 12.312 9.43002 11.28 8.41036C10.104 7.22076 8.824 7.08319 7.52 8.41036C6.664 9.27626 5.92 9.43002 4.888 8.41036C4.51141 7.9376 3.98639 7.60923 3.4 7.47972V7.07509C3.4 6.75315 3.52643 6.4444 3.75147 6.21675C3.97652 5.98911 4.28174 5.86122 4.6 5.86122ZM3.4 17.1907V8.33753C3.75694 8.46053 4.07281 8.68196 4.312 8.97684C5.488 10.1664 6.768 10.304 8.072 8.97684C8.928 8.11094 9.672 7.95718 10.704 8.97684C11.872 10.1583 13.152 10.3121 14.472 8.97684C15.328 8.11094 16.072 7.95718 17.112 8.97684C17.489 9.44911 18.0139 9.77735 18.6 9.90748V17.1907H3.4Z" fill="white" stroke="white" stroke-width="0.6"/>
</svg>
