<svg width="19" height="19" viewBox="0 0 19 19" fill="none" xmlns="http://www.w3.org/2000/svg">
<path d="M3.45619 0C1.55041 0 0 1.54244 0 3.43842C0 5.33464 1.55041 6.87732 3.45619 6.87732C5.36221 6.87732 6.91286 5.33464 6.91286 3.43842C6.91286 1.54267 5.36221 0 3.45619 0ZM3.45619 5.47062C2.33021 5.47062 1.41396 4.55885 1.41396 3.43842C1.41396 2.31823 2.33021 1.40669 3.45619 1.40669C4.58241 1.40669 5.49889 2.31823 5.49889 3.43842C5.49889 4.55909 4.58241 5.47062 3.45619 5.47062Z" fill="white"/>
<path d="M14.7672 6.87732C16.6732 6.87732 18.2239 5.33464 18.2239 3.43842C18.2239 1.54244 16.6732 0 14.7672 0C12.8612 0 11.311 1.54244 11.311 3.43842C11.311 5.33464 12.8614 6.87732 14.7672 6.87732ZM14.7672 1.40669C15.8934 1.40669 16.8099 2.31823 16.8099 3.43842C16.8099 4.55885 15.8934 5.47062 14.7672 5.47062C13.641 5.47062 12.725 4.55885 12.725 3.43842C12.725 2.31823 13.641 1.40669 14.7672 1.40669Z" fill="white"/>
<path d="M3.45676 8.07935C1.75246 8.07935 0.365601 9.45907 0.365601 11.1548V15.9247C0.365601 17.6205 1.75246 19.0002 3.45676 19.0002C5.16152 19.0002 6.54838 17.6205 6.54838 15.9247V11.1551C6.54838 9.45907 5.16152 8.07935 3.45676 8.07935ZM5.13442 15.9247C5.13442 16.8449 4.38196 17.5935 3.45676 17.5935C2.53179 17.5935 1.77956 16.8449 1.77956 15.9247V11.1551C1.77956 10.2349 2.53179 9.48627 3.45676 9.48627C4.38196 9.48627 5.13442 10.2349 5.13442 11.1551V15.9247Z" fill="white"/>
<path d="M18.7962 18.2052L17.859 11.1058C17.8329 9.43258 16.4561 8.07935 14.7679 8.07935C13.0796 8.07935 11.7033 9.43258 11.6772 11.1058L10.7395 18.2052C10.7129 18.4059 10.7744 18.6084 10.9089 18.7606C11.0435 18.9127 11.2367 19 11.4406 19H18.0951C18.2985 19 18.4925 18.9127 18.6263 18.7606C18.7609 18.6084 18.8226 18.4059 18.7962 18.2052ZM12.2465 17.5935L13.0848 11.2465C13.0885 11.216 13.0907 11.1856 13.0907 11.1548C13.0907 10.2346 13.8427 9.48604 14.7679 9.48604C15.6931 9.48604 16.4455 10.2346 16.4455 11.1548C16.4455 11.1856 16.4474 11.216 16.4514 11.2465L17.2892 17.5935H12.2465Z" fill="white"/>
</svg>
