<svg width="23" height="24" viewBox="0 0 23 24" fill="none" xmlns="http://www.w3.org/2000/svg">
<path d="M1 20.3739C1 21.8219 2.16905 23 3.60599 23H15.356C15.4882 23 15.6154 22.9494 15.712 22.8585L21.8347 17.0913C21.9401 16.9919 22 16.853 22 16.7076V5.24773C22 3.79971 20.831 2.62165 19.394 2.62165H17.6794V1.52522C17.6794 1.23519 17.446 1 17.1582 1C16.8704 1 16.637 1.23519 16.637 1.52522V2.62171H6.36297V1.52522C6.36297 1.23519 6.12958 1 5.84177 1C5.55397 1 5.32057 1.23519 5.32057 1.52522V2.62171H3.60599C2.16905 2.62171 1 3.79976 1 5.24778V20.3739ZM2.0424 20.3739V9.41825H20.9576V16.2035H16.8218C15.6723 16.2035 14.7371 17.1459 14.7371 18.3043V21.9496H3.60599C2.74382 21.9496 2.0424 21.2427 2.0424 20.3739ZM20.1356 17.2539L15.7795 21.357V18.3043C15.7795 17.7251 16.2471 17.2539 16.8218 17.2539H20.1356ZM3.60599 3.67208H5.32057V5.24405C5.32057 5.53408 5.55397 5.76927 5.84177 5.76927C6.12958 5.76927 6.36297 5.53408 6.36297 5.24405V3.67208H16.637V5.24405C16.637 5.53408 16.8704 5.76927 17.1582 5.76927C17.446 5.76927 17.6794 5.53408 17.6794 5.24405V3.67208H19.394C20.2561 3.67208 20.9576 4.37892 20.9576 5.24773V8.36777H2.0424V5.24773C2.0424 4.37892 2.74382 3.67208 3.60599 3.67208Z" fill="white" stroke="white" stroke-width="0.4"/>
</svg>
