<svg width="18" height="24" viewBox="0 0 18 24" fill="none" xmlns="http://www.w3.org/2000/svg">
<path d="M9.03137 24C8.51871 24 8.04349 23.7461 7.75921 23.3211L1.76664 14.3472C1.74418 14.3128 1.72492 14.277 1.70941 14.2402C0.590485 12.7018 0 10.8853 0 8.97646C0 6.42765 1.09272 3.99084 2.99762 2.28923C4.92873 0.563891 7.42252 -0.230513 10.023 0.0580217C14.2158 0.51989 17.5528 3.89777 17.9576 8.08846C18.1713 10.2986 17.5715 12.493 16.2699 14.268C16.2608 14.281 16.2512 14.2925 16.2413 14.304L10.3086 23.3136C10.0259 23.7421 9.55046 23.9984 9.03646 24C9.03485 24 9.03325 24 9.03137 24ZM2.89653 13.7768L8.80566 22.6259C8.87653 22.732 8.96238 22.7784 9.03244 22.7467C9.087 22.7467 9.18889 22.7304 9.25789 22.6251L15.2333 13.5517C15.2529 13.5224 15.2751 13.4938 15.2989 13.4685C16.3881 11.9522 16.8882 10.0874 16.7074 8.20953C16.3587 4.60524 13.4892 1.70123 9.88474 1.30416C7.64475 1.05616 5.49756 1.73883 3.83655 3.22284C2.1972 4.68684 1.25719 6.78445 1.25719 8.97646C1.25719 10.6642 1.79338 12.2669 2.80721 13.6128C2.84626 13.664 2.87567 13.7186 2.89653 13.7768ZM9.02496 12.9925C6.74806 12.9925 4.89584 11.1455 4.89584 8.87513C4.89584 6.60472 6.74806 4.75778 9.02496 4.75778C11.3013 4.75778 13.1535 6.60472 13.1535 8.87513C13.1535 11.1455 11.3013 12.9925 9.02496 12.9925ZM9.02496 6.01138C7.44124 6.01138 6.15303 7.29592 6.15303 8.87513C6.15303 10.4543 7.44124 11.7389 9.02496 11.7389C10.6081 11.7389 11.8964 10.4543 11.8964 8.87513C11.8964 7.29592 10.6081 6.01138 9.02496 6.01138Z" fill="white"/>
</svg>
