<svg width="31" height="23" viewBox="0 0 31 23" fill="none" xmlns="http://www.w3.org/2000/svg">
<path d="M9.30615 0.123846C8.95231 0.306667 8.88154 0.507179 8.84615 1.38L8.81667 2.13487L8.26231 2.33538C7.95564 2.44154 7.48974 2.63615 7.23026 2.7718L6.75256 3.00769L6.25128 2.51231C5.9741 2.24103 5.69103 1.98744 5.62026 1.95205C5.44333 1.86359 5.03641 1.86949 4.84769 1.96974C4.65897 2.0759 2.04641 4.69436 1.95205 4.87718C1.86949 5.04231 1.86949 5.45513 1.95205 5.62026C1.98744 5.69103 2.24103 5.9741 2.50641 6.25128L3.0018 6.75256L2.76 7.24205C2.63026 7.50744 2.43564 7.97333 2.32949 8.2741L2.13487 8.81667L1.38 8.84615C0.501282 8.88154 0.306667 8.95231 0.117949 9.31795C0.00589744 9.53615 0 9.66 0 11.5C0 13.34 0.00589744 13.4638 0.117949 13.6821C0.306667 14.0477 0.501282 14.1185 1.38 14.1538L2.13487 14.1833L2.32949 14.7259C2.43564 15.0267 2.63026 15.4926 2.76 15.7579L3.0018 16.2474L2.50641 16.7487C2.24103 17.0259 1.98744 17.309 1.95205 17.3797C1.86359 17.5567 1.86949 17.9636 1.96974 18.1523C2.0759 18.341 4.69436 20.9536 4.87718 21.0479C5.04231 21.1305 5.45513 21.1305 5.62026 21.0479C5.69103 21.0126 5.9741 20.759 6.25128 20.4877L6.75256 19.9923L7.23026 20.2282C7.48974 20.3638 7.95564 20.5585 8.26231 20.6646L8.81667 20.8651L8.84615 21.62C8.88154 22.4987 8.95231 22.6933 9.31795 22.8821C9.54795 23 9.64821 23 19.5205 23C29.3987 23 29.4931 23 29.7231 22.8821C29.8764 22.8054 30.0003 22.6815 30.0769 22.5282C30.1949 22.2982 30.1949 22.1979 30.1949 14.1538C30.1949 6.81154 30.1831 5.99179 30.1005 5.82077C29.9708 5.56128 24.6749 0.25359 24.4036 0.112051C24.1913 0.00589752 23.9849 0 16.8549 0C9.67769 0.00589752 9.51846 0.00589752 9.30615 0.123846ZM12.3846 3.55026V5.33718L11.4528 5.34308C10.4444 5.34897 10.0905 5.41974 9.17051 5.77359C7.73744 6.32795 6.32795 7.73744 5.77359 9.17051C5.40795 10.1141 5.34897 10.4385 5.34897 11.5C5.34897 12.5615 5.40795 12.8859 5.77359 13.8295C6.32795 15.2626 7.73744 16.6721 9.17051 17.2264C10.0905 17.5803 10.4444 17.651 11.4528 17.6569L12.3846 17.6628V19.4438V21.2308H11.5H10.6154V20.6115C10.6154 19.6385 10.4738 19.4438 9.61872 19.2315C8.92872 19.0605 8.05 18.7008 7.47205 18.3528C6.60513 17.8338 6.44 17.8515 5.73821 18.5356L5.24282 19.0133L4.61769 18.3823L3.98667 17.7572L4.46436 17.2618C5.14256 16.5718 5.16615 16.3831 4.67667 15.5751C4.26385 14.891 3.87462 13.9356 3.73897 13.2692C3.66821 12.9036 3.49128 12.6264 3.24359 12.5026C3.05487 12.4082 2.89564 12.3846 2.38846 12.3846H1.76923V11.5V10.6154H2.38846C2.89564 10.6154 3.05487 10.5918 3.24359 10.4974C3.49128 10.3736 3.66821 10.0964 3.73897 9.73077C3.87462 9.06436 4.26385 8.10897 4.67667 7.42487C5.16615 6.61692 5.14256 6.42821 4.46436 5.7382L3.98667 5.24282L4.61769 4.61769L5.24282 3.98667L5.73821 4.46436C6.42821 5.14256 6.61692 5.16615 7.42487 4.67667C8.12667 4.25205 8.91103 3.93359 9.71898 3.74487C10.4562 3.57385 10.6154 3.33205 10.6154 2.38846V1.76923H11.5H12.3846V3.55026ZM23.118 4.06923C23.118 6.26308 23.1238 6.38692 23.2359 6.60513C23.3126 6.75846 23.4364 6.88231 23.5897 6.95897C23.808 7.07103 23.9318 7.07692 26.1256 7.07692H28.4256V14.1538V21.2308H21.2897H14.1538V11.5V1.76923H18.6359H23.118V4.06923ZM26.0372 4.18718L27.1577 5.30769H26.0195H24.8872V4.18718C24.8872 3.56795 24.8931 3.06667 24.9049 3.06667C24.9108 3.06667 25.4238 3.56795 26.0372 4.18718ZM12.1133 7.11231L12.3846 7.15359V8.06769V8.9759L12.1959 8.94051C11.1756 8.72231 10.3205 8.95821 9.63641 9.64231C8.59256 10.6803 8.59256 12.3138 9.64231 13.3577C10.3205 14.0418 11.1756 14.2777 12.1959 14.0595L12.3846 14.0182V14.9323V15.8464L12.0779 15.8877C10.6626 16.0528 9.32385 15.581 8.33308 14.5608C6.38692 12.5438 6.75256 9.35333 9.11744 7.78462C9.93718 7.23026 11.0931 6.97667 12.1133 7.11231ZM11.9128 10.7333C12.1782 10.869 12.3846 11.2051 12.3846 11.5C12.3846 11.9482 11.9482 12.3846 11.5 12.3846C11.2051 12.3846 10.869 12.1782 10.7333 11.9128C10.5859 11.6179 10.5859 11.3821 10.7333 11.0872C10.9515 10.6567 11.4646 10.5033 11.9128 10.7333Z" fill="white"/>
<path d="M16.3829 5.43231C16.1293 5.56206 15.9229 5.91001 15.9229 6.19308C15.9229 6.48795 16.1293 6.82411 16.3946 6.95975C16.6129 7.0718 16.7367 7.0777 18.6357 7.0777C20.5346 7.0777 20.6585 7.0718 20.8767 6.95975C21.1421 6.82411 21.3485 6.48795 21.3485 6.19308C21.3485 5.89821 21.1421 5.56206 20.8767 5.42642C20.6585 5.31436 20.5346 5.30847 18.6239 5.30847C16.7249 5.31436 16.5893 5.32026 16.3829 5.43231Z" fill="white"/>
<path d="M16.3829 8.96948C16.1293 9.09923 15.9229 9.44718 15.9229 9.73025C15.9229 10.0251 16.1293 10.3613 16.3946 10.4969C16.6187 10.6149 16.7308 10.6149 21.2895 10.6149C25.8482 10.6149 25.9603 10.6149 26.1844 10.4969C26.4498 10.3613 26.6562 10.0251 26.6562 9.73025C26.6562 9.43538 26.4498 9.09923 26.1844 8.96359C25.9603 8.84564 25.8482 8.84564 21.2777 8.84564C16.7367 8.85153 16.5952 8.85153 16.3829 8.96948Z" fill="white"/>
<path d="M16.3829 12.51C16.1293 12.6398 15.9229 12.9877 15.9229 13.2708C15.9229 13.5657 16.1293 13.9018 16.3946 14.0374C16.6187 14.1554 16.7308 14.1554 21.2895 14.1554C25.8482 14.1554 25.9603 14.1554 26.1844 14.0374C26.4498 13.9018 26.6562 13.5657 26.6562 13.2708C26.6562 12.9759 26.4498 12.6398 26.1844 12.5041C25.9603 12.3862 25.8482 12.3862 21.2777 12.3862C16.7367 12.3921 16.5952 12.3921 16.3829 12.51Z" fill="white"/>
<path d="M16.3829 16.0472C16.1293 16.1769 15.9229 16.5249 15.9229 16.808C15.9229 17.1028 16.1293 17.439 16.3946 17.5746C16.6187 17.6926 16.7308 17.6926 21.2895 17.6926C25.8482 17.6926 25.9603 17.6926 26.1844 17.5746C26.4498 17.439 26.6562 17.1028 26.6562 16.808C26.6562 16.5131 26.4498 16.1769 26.1844 16.0413C25.9603 15.9233 25.8482 15.9233 21.2777 15.9233C16.7367 15.9292 16.5952 15.9292 16.3829 16.0472Z" fill="white"/>
</svg>
