<svg width="26" height="30" viewBox="0 0 26 30" fill="none" xmlns="http://www.w3.org/2000/svg">
<path d="M13.0374 16.3861C6.15372 16.3861 0.548828 22.059 0.548828 29.0334C0.548828 29.301 0.761959 29.5141 1.02951 29.5141H25.0453C25.3129 29.5141 25.526 29.301 25.526 29.0334C25.526 22.059 19.9211 16.3861 13.0374 16.3861ZM13.7131 21.5103L14.6336 28.5527H11.1691L12.1713 21.5103H13.7131ZM14.4794 17.4427V20.549H11.5999V17.4427C12.0715 17.3838 12.5522 17.3475 13.0419 17.3475C13.5272 17.3475 14.0078 17.3838 14.4794 17.4427ZM10.634 17.606V21.0297C10.634 21.2972 10.8471 21.5103 11.1147 21.5103H11.1963L10.1941 28.5527H1.51925C1.73692 23.161 5.57782 18.6988 10.634 17.606ZM15.595 28.5527C15.595 28.5437 15.595 28.5346 15.595 28.5255L14.679 21.5103H14.9556C15.2231 21.5103 15.4363 21.2972 15.4363 21.0297V17.606C20.4925 18.6988 24.3379 23.161 24.551 28.5527C24.5556 28.5527 15.595 28.5527 15.595 28.5527Z" fill="white" stroke="white" stroke-width="0.7"/>
<path d="M12.7152 14.6629C16.6015 14.6629 19.7622 11.5022 19.7622 7.62052C19.7622 3.73881 16.6015 0.578125 12.7152 0.578125C8.83354 0.578125 5.67285 3.73881 5.67285 7.62052C5.67285 11.5022 8.83354 14.6629 12.7152 14.6629ZM12.7152 1.53495C16.0709 1.53495 18.8008 4.26484 18.8008 7.61599C18.8008 10.9717 16.0709 13.7016 12.7152 13.7016C9.35957 13.7016 6.63421 10.9717 6.63421 7.61599C6.63421 4.26031 9.35957 1.53495 12.7152 1.53495Z" fill="white" stroke="white" stroke-width="0.7"/>
</svg>
