<svg width="25" height="31" viewBox="0 0 25 31" fill="none" xmlns="http://www.w3.org/2000/svg">
<path d="M12.5843 30.0315C9.4335 30.0315 6.30052 30.0315 3.14974 30.0315C1.76126 30.0315 0.924609 29.3048 0.906807 27.94C0.871205 25.3522 0.800001 22.7466 0.978011 20.1588C1.22723 16.3834 4.07539 13.3702 7.84921 13.1043C10.9822 12.8916 14.1508 12.8916 17.266 13.1221C21.289 13.4411 24.0838 16.5075 24.2618 20.531C24.3686 22.9771 24.3152 25.4231 24.2974 27.8868C24.2796 29.2871 23.4785 30.0138 22.0188 30.0138C18.8681 30.0315 15.7351 30.0315 12.5843 30.0315ZM17.9602 27.8514C17.9602 26.7524 17.9602 25.689 17.9602 24.6432C17.9602 23.4025 17.9424 22.1617 17.978 20.921C17.9958 20.3538 18.3162 19.8575 18.9037 19.9993C19.2419 20.0702 19.5445 20.5665 19.7225 20.9387C19.8471 21.2046 19.7581 21.5768 19.7581 21.8958C19.7581 23.8633 19.7581 25.8308 19.7581 27.8514C20.577 27.8514 21.3068 27.8514 22.1434 27.8514C22.1434 27.5146 22.1434 27.1956 22.1434 26.8765C22.1434 24.98 22.1256 23.1011 22.1434 21.2046C22.1434 17.571 19.8115 15.1959 16.1623 15.1781C13.7948 15.1604 11.4094 15.1604 9.04188 15.1604C5.49948 15.1604 3.13194 17.5001 3.09633 21.0273C3.07853 23.0302 3.09633 25.0509 3.09633 27.0538C3.09633 27.3196 3.13194 27.5678 3.14974 27.8514C3.93298 27.8514 4.66283 27.8514 5.48167 27.8514C5.48167 27.426 5.48167 27.0538 5.48167 26.6816C5.48167 24.785 5.48167 22.9062 5.48167 21.0096C5.48167 20.4247 5.71309 19.9816 6.31832 19.9638C6.97696 19.9461 7.24398 20.407 7.26178 21.0096C7.27958 21.2755 7.26178 21.5414 7.26178 21.8072C7.26178 23.8101 7.26178 25.813 7.26178 27.8514C10.8398 27.8514 14.3644 27.8514 17.9602 27.8514Z" fill="white"/>
<path d="M12.6024 11.6644C9.39823 11.6467 6.76367 9.04117 6.76367 5.86843C6.76367 2.69568 9.39823 0.0724123 12.6024 0.0546875C15.8778 0.0546875 18.4946 2.66024 18.4768 5.90388C18.459 9.11207 15.8422 11.6822 12.6024 11.6644ZM12.6736 2.19939C10.6443 2.18166 8.9888 3.75917 8.9532 5.79753C8.8998 7.83588 10.5731 9.51974 12.638 9.51974C14.6673 9.51974 16.3228 7.88905 16.3228 5.88615C16.3406 3.88325 14.6851 2.21711 12.6736 2.19939Z" fill="white"/>
</svg>
