<svg width="16" height="33" viewBox="0 0 16 33" fill="none" xmlns="http://www.w3.org/2000/svg">
<path d="M0.891029 28.0618L5.20814 31.4191C5.88235 31.9446 6.71256 32.23 7.5672 32.23C8.42212 32.23 9.25226 31.9446 9.92646 31.4191L14.2436 28.0618C14.5678 27.8096 14.8187 27.4756 14.9703 27.094C15.1221 26.7124 15.1692 26.2973 15.1067 25.8914L13.0852 12.7532L13.0798 12.721L12.3035 7.67384L12.3037 7.67358C12.8912 7.64167 13.444 7.38639 13.8496 6.95998C14.2549 6.53357 14.4819 5.96844 14.4842 5.3802V2.30576C14.4842 1.69433 14.2412 1.10782 13.8089 0.675259C13.3763 0.242929 12.7898 0 12.1784 0H2.95534C2.34391 0 1.7574 0.242929 1.32484 0.675259C0.89251 1.10785 0.649581 1.69434 0.649581 2.30576V5.3802C0.651897 5.96848 0.878872 6.53361 1.28418 6.95998C1.68974 7.3864 2.24252 7.6417 2.83003 7.67358L0.027077 25.8891C-0.0357136 26.2955 0.0111222 26.7111 0.16321 27.0932C0.315041 27.4751 0.566204 27.8096 0.890975 28.0618L0.891029 28.0618ZM10.8335 8.2283L3.64016 12.5156L4.38334 7.68585H10.7504L10.8335 8.2283ZM3.33975 14.4863L11.0878 9.86703L11.4867 12.451L2.8631 17.5952L3.33975 14.4863ZM2.55592 19.5651L11.7362 14.0897L12.1335 16.6744L2.07772 22.6694L2.55592 19.5651ZM13.3001 26.8481L8.98275 30.2051C8.57821 30.52 8.08001 30.6909 7.56714 30.6909C7.05427 30.6909 6.55603 30.52 6.15153 30.2051L1.83514 26.8478H1.83488C1.6146 26.6767 1.5042 26.3995 1.54666 26.1239L1.77724 24.6399L12.3877 18.3137L13.5877 26.1237C13.6302 26.3993 13.5203 26.6764 13.3002 26.8475L13.3001 26.8481ZM2.187 5.37943V2.30499C2.187 1.88063 2.53132 1.53631 2.95568 1.53631H12.1787C12.3825 1.53631 12.5781 1.61737 12.7222 1.76148C12.8663 1.90559 12.9474 2.10117 12.9474 2.30499V5.37943C12.9474 5.58324 12.8663 5.77856 12.7222 5.92293C12.5781 6.06704 12.3825 6.14784 12.1787 6.14784H2.95568C2.53132 6.14784 2.187 5.80378 2.187 5.37943V5.37943Z" fill="white"/>
</svg>
