<svg width="24" height="20" viewBox="0 0 24 20" fill="none" xmlns="http://www.w3.org/2000/svg">
<path d="M20.9375 1H3.0625C1.92383 1 1 2.00781 1 3.25V16.75C1 17.9922 1.92383 19 3.0625 19H20.9375C22.0762 19 23 17.9922 23 16.75V3.25C23 2.00781 22.0762 1 20.9375 1ZM20.9375 2.5C21.032 2.5 21.118 2.52344 21.1996 2.55625L12 11.2563L2.80039 2.55625C2.88203 2.51875 2.97227 2.5 3.0625 2.5H20.9375ZM20.9375 17.5H3.0625C2.68438 17.5 2.375 17.1625 2.375 16.75V4.14062L11.5488 12.8125C11.6777 12.9344 11.841 12.9953 12 12.9953C12.159 12.9953 12.3223 12.9344 12.4512 12.8125L21.625 4.14062V16.75C21.625 17.1625 21.3156 17.5 20.9375 17.5Z" fill="white" stroke="white" stroke-width="0.8"/>
</svg>
