<svg width="31" height="19" viewBox="0 0 31 19" fill="none" xmlns="http://www.w3.org/2000/svg">
<path d="M13.9707 0.0109787C10.5272 0.420225 7.33508 2.01044 3.94419 5.00963C2.75737 6.05613 0.804683 8.16667 0.301895 8.95008C0.0914256 9.27748 0.0914256 9.7335 0.301895 10.0609C0.570828 10.4818 1.70502 11.7973 2.51182 12.6216C5.39409 15.5916 8.60374 17.6729 11.6322 18.5381C12.9476 18.9123 13.6141 19 15.0815 19C16.549 19 17.2155 18.9123 18.5309 18.5381C22.0796 17.5209 25.9792 14.7555 29.0894 11.0372C29.943 10.02 30.0132 9.8972 30.0132 9.50549C30.0132 9.11378 29.943 8.99101 29.0894 7.97374C25.9967 4.28468 22.1089 1.5135 18.5893 0.490381C17.4084 0.145445 16.625 0.0343628 15.3446 0.0109787C14.7015 -0.00656128 14.0818 -0.000715256 13.9707 0.0109787ZM16.5139 2.05136C19.2675 2.46646 22.2667 4.0859 25.149 6.72262C26.0318 7.52357 27.7682 9.37687 27.7682 9.51134C27.7682 9.52887 27.5694 9.78027 27.318 10.0609C23.9154 13.9546 20.0451 16.4276 16.5139 16.9596C15.7656 17.0707 14.3975 17.0707 13.6492 16.9596C11.106 16.5738 8.39328 15.1882 5.6981 12.9022C4.72175 12.0779 2.3949 9.68088 2.3949 9.50549C2.3949 9.4821 2.59367 9.23071 2.84507 8.95008C6.22427 5.08563 10.0946 2.60092 13.5965 2.05721C14.3098 1.94613 15.7889 1.94613 16.5139 2.05136Z" fill="white"/>
<path d="M14.2632 3.636C11.7317 4.09787 9.93099 5.74654 9.31712 8.1611C9.15927 8.78081 9.15927 10.2307 9.31712 10.8504C9.88422 13.072 11.5154 14.7032 13.737 15.2703C14.3567 15.4281 15.8066 15.4281 16.4263 15.2703C18.6479 14.7032 20.2791 13.072 20.8462 10.8504C20.9339 10.5113 20.9572 10.2073 20.9572 9.50576C20.9572 8.8042 20.9339 8.50019 20.8462 8.1611C20.2908 5.96871 18.7064 4.36095 16.514 3.76462C16.1165 3.65354 14.6256 3.57169 14.2632 3.636ZM16.0171 5.68223C17.1103 5.92778 18.1101 6.72873 18.6187 7.78108C18.9227 8.40664 19.0163 8.88605 18.987 9.68115C18.9578 10.4353 18.8116 10.944 18.4608 11.5403C18.2153 11.9612 17.5371 12.6394 17.1162 12.885C15.8826 13.6099 14.2807 13.6099 13.0471 12.885C12.6262 12.6394 11.948 11.9612 11.7024 11.5403C10.9775 10.3067 10.9775 8.70481 11.7024 7.47122C11.948 7.05029 12.6262 6.37211 13.0471 6.12656C13.9299 5.60623 14.9647 5.44838 16.0171 5.68223Z" fill="white"/>
</svg>
