<svg width="18" height="23" viewBox="0 0 18 23" fill="none" xmlns="http://www.w3.org/2000/svg">
<path d="M2.24128 9.28632C2.24128 8.31288 2.23132 7.35852 2.24128 6.41371C2.30105 3.18798 4.74156 0.506241 8.00885 0.0672366C12.1029 -0.476747 15.679 2.44358 15.7587 6.41371C15.7786 7.36807 15.7587 8.32242 15.7587 9.24815C15.8185 9.29587 15.8384 9.3245 15.8683 9.3245C17.492 9.68715 18 10.317 18 11.9299C17.99 14.812 18 17.6847 18 20.5668C17.99 22.1988 17.1633 22.9909 15.4499 22.9909C11.1168 23.0004 6.78362 23.0004 2.45047 22.9909C0.876591 22.9909 0.0199225 22.1701 0.00996126 20.6623C0 17.7992 0.00996126 14.9361 0 12.073C0 10.2979 0.408412 9.7635 2.24128 9.28632ZM8.99502 21.5498C11.1865 21.5498 13.378 21.5498 15.5695 21.5498C16.2767 21.5498 16.4859 21.3399 16.4859 20.6623C16.4859 17.6751 16.4859 14.688 16.4859 11.7008C16.4859 10.9946 16.2767 10.7847 15.5396 10.7847C11.1765 10.7847 6.8135 10.7847 2.45047 10.7847C1.71334 10.7847 1.51411 10.9851 1.51411 11.7008C1.51411 14.6689 1.51411 17.6465 1.51411 20.6145C1.51411 21.3589 1.71334 21.5403 2.48035 21.5498C4.65191 21.5498 6.82346 21.5498 8.99502 21.5498ZM14.2446 9.30541C14.2446 8.26516 14.2844 7.26309 14.2346 6.27056C14.1151 3.77968 12.2125 1.77554 9.73215 1.48923C7.09242 1.17429 4.69175 2.63446 3.96458 5.02035C3.53625 6.42325 3.81516 7.85479 3.72551 9.30541C7.2518 9.30541 10.7183 9.30541 14.2446 9.30541Z" fill="white"/>
<path d="M9.02503 12.9415C10.0411 12.9511 10.9077 13.5905 11.1667 14.4971C11.4456 15.4801 11.0372 16.4727 10.1208 16.9403C9.82193 17.093 9.73228 17.2743 9.7522 17.5702C9.77212 17.9519 9.76216 18.3336 9.74224 18.7154C9.72232 19.1449 9.47329 19.3834 9.02503 19.4121C8.59669 19.4407 8.30782 19.1639 8.25801 18.7058C8.24805 18.5627 8.23809 18.4195 8.24805 18.2764C8.2879 17.6179 8.26797 17.093 7.52088 16.6635C6.73394 16.215 6.5646 15.1652 6.90328 14.3063C7.232 13.4569 8.05879 12.932 9.02503 12.9415ZM9.01507 15.8046C9.46332 15.7951 9.74224 15.4992 9.72232 15.0602C9.70239 14.6498 9.41352 14.3826 8.99515 14.3826C8.55685 14.3826 8.24805 14.6785 8.25801 15.1079C8.25801 15.5374 8.55685 15.8141 9.01507 15.8046Z" fill="white"/>
</svg>
