<svg width="21" height="20" viewBox="0 0 21 20" fill="none" xmlns="http://www.w3.org/2000/svg">
<path d="M13.4993 6.50072V6.45072V3.54737C13.4991 3.37704 13.4514 3.21013 13.3617 3.06533C13.272 2.92053 13.1438 2.80354 12.9914 2.72746L12.9914 2.72745L7.8298 0.146645L13.4993 6.50072ZM13.4993 6.50072H13.5493H17.7431C17.9865 6.50072 18.22 6.59741 18.3921 6.76954C18.5642 6.94166 18.6609 7.17511 18.6609 7.41852V18.0644V18.1144H18.7109H19.9513M13.4993 6.50072L19.9513 18.1144M19.9513 18.1144V19.95H0.05V18.1144H1.29041H1.34041V18.0644V3.54737C1.34064 3.37704 1.38827 3.21013 1.47796 3.06533C1.56765 2.92053 1.69587 2.80354 1.84826 2.72746L1.84829 2.72745L7.00989 0.146645L19.9513 18.1144ZM3.20366 4.09939L3.17602 4.11321V4.14411V18.0644V18.1144H3.22602H11.6137H11.6637V18.0644V4.14411V4.11321L11.636 4.09939L7.44221 2.00248L7.41985 1.9913L7.39749 2.00248L3.20366 4.09939ZM13.4993 18.0644V18.1144H13.5493H16.7753H16.8253V18.0644V8.38633V8.33633H16.7753H13.5493H13.4993V8.38633V18.0644ZM7.41985 0.05C7.56213 0.05 7.70247 0.0830814 7.82977 0.146631H7.00992C7.13722 0.0830814 7.27756 0.05 7.41985 0.05Z" fill="white" stroke="white" stroke-width="0.1"/>
</svg>
