<svg width="19" height="20" viewBox="0 0 19 20" fill="none" xmlns="http://www.w3.org/2000/svg">
<g clip-path="url(#clip0_1_838)">
<path d="M9.50199 11.2656C3.37309 11.2656 0 14.1094 0 19.2695C0 19.6719 0.334521 20 0.744708 20H18.2553C18.6655 20 19 19.6719 19 19.2695C19 14.1094 15.6269 11.2656 9.50199 11.2656ZM1.51729 18.5391C1.80801 14.6797 4.49214 12.7227 9.50199 12.7227C14.5118 12.7227 17.196 14.6797 17.4867 18.5391H1.51729Z" fill="white"/>
<path d="M9.50213 0C6.68658 0 4.56396 2.125 4.56396 4.9375C4.56396 7.83594 6.77818 10.1914 9.50213 10.1914C12.2261 10.1914 14.4403 7.83203 14.4403 4.9375C14.4363 2.125 12.3137 0 9.50213 0ZM9.50213 8.73438C7.60253 8.73438 6.05338 7.03125 6.05338 4.9375C6.05338 2.92188 7.50297 1.45703 9.50213 1.45703C11.4694 1.45703 12.9509 2.95312 12.9509 4.9375C12.9469 7.03125 11.4017 8.73438 9.50213 8.73438Z" fill="white"/>
</g>
<defs>
<clipPath id="clip0_1_838">
<rect width="19" height="20" fill="white"/>
</clipPath>
</defs>
</svg>
