<svg width="21" height="21" viewBox="0 0 21 21" fill="none" xmlns="http://www.w3.org/2000/svg">
<path d="M1.58772 13.65H6.4805C6.36247 12.655 6.3 11.5967 6.3 10.5C6.3 9.40332 6.36247 8.34503 6.4805 7.35H1.58772C1.23949 8.33525 1.05 9.3955 1.05 10.5C1.05 11.6045 1.23949 12.6647 1.58772 13.65ZM2.0323 14.7C3.2822 17.2151 5.61968 19.0944 8.42941 19.7225C7.61134 18.6089 6.98477 16.839 6.62944 14.7H2.0323ZM19.4123 13.65C19.7605 12.6647 19.95 11.6045 19.95 10.5C19.95 9.3955 19.7605 8.33525 19.4123 7.35H14.5195C14.6375 8.34503 14.7 9.40332 14.7 10.5C14.7 11.5967 14.6375 12.655 14.5195 13.65H19.4123ZM18.9677 14.7H14.3706C14.0152 16.839 13.3887 18.6089 12.5706 19.7225C15.3803 19.0944 17.7178 17.2151 18.9677 14.7ZM7.54362 13.65H13.4564C13.5807 12.6655 13.65 11.6055 13.65 10.5C13.65 9.39453 13.5807 8.33449 13.4564 7.35H7.54362C7.41928 8.33449 7.35 9.39453 7.35 10.5C7.35 11.6055 7.41928 12.6655 7.54362 13.65ZM7.70173 14.7C8.25003 17.8162 9.36398 19.95 10.5 19.95C11.636 19.95 12.75 17.8162 13.2983 14.7H7.70173ZM2.0323 6.3H6.62944C6.98477 4.16101 7.61134 2.39109 8.42941 1.27754C5.61968 1.90563 3.2822 3.78489 2.0323 6.3ZM18.9677 6.3C17.7178 3.78489 15.3803 1.90563 12.5706 1.27754C13.3887 2.39109 14.0152 4.16101 14.3706 6.3H18.9677ZM7.70173 6.3H13.2983C12.75 3.18378 11.636 1.05 10.5 1.05C9.36398 1.05 8.25003 3.18378 7.70173 6.3ZM10.5 21C4.70101 21 0 16.299 0 10.5C0 4.70101 4.70101 0 10.5 0C16.299 0 21 4.70101 21 10.5C21 16.299 16.299 21 10.5 21Z" fill="white"/>
</svg>
