<svg width="26" height="26" viewBox="0 0 26 26" fill="none" xmlns="http://www.w3.org/2000/svg">
<path d="M19.0049 23.381C19.1924 23.2685 19.2298 23.0435 19.1174 22.856C19.0049 22.6686 18.8174 22.6311 18.63 22.7436C14.7306 24.9932 9.969 24.7307 6.36964 22.1062L7.08201 22.0312C7.26948 21.9937 7.41945 21.8062 7.41945 21.6188C7.38196 21.3938 7.19449 21.2438 7.00703 21.2438L5.39481 21.4313C5.20735 21.4688 5.05737 21.6563 5.05737 21.8437L5.24484 23.4559C5.28233 23.6809 5.4698 23.7934 5.65727 23.7934C5.84473 23.7559 5.99471 23.5684 5.99471 23.381L5.91972 22.6686C8.01935 24.2058 10.4939 24.9932 13.006 24.9932C15.0681 24.9932 17.1302 24.4683 19.0049 23.381Z" fill="white" stroke="white" stroke-width="1.5"/>
<path d="M4.34507 6.65898C4.38257 6.84644 4.53254 6.99642 4.7575 6.99642C4.94497 6.95892 5.13243 6.80895 5.09494 6.58399L4.94497 4.97178C4.90747 4.78431 4.7575 4.63434 4.53254 4.63434L2.88283 4.78431C2.69537 4.82181 2.5079 4.97178 2.5454 5.19674C2.58289 5.4217 2.73286 5.53418 2.95782 5.53418L3.6327 5.49668C0.633235 9.24602 0.145822 14.4951 2.43292 18.7318C2.5454 18.9193 2.77035 18.9943 2.95782 18.8818C3.14529 18.7693 3.18278 18.5444 3.10779 18.3944C0.933182 14.3826 1.4206 9.43348 4.27009 5.90911L4.34507 6.65898Z" fill="white" stroke="white" stroke-width="1.5"/>
<path d="M21.442 4.59696L21.292 2.98475C21.2545 2.75979 21.0671 2.60981 20.8796 2.64731C20.6921 2.6848 20.5047 2.83477 20.5422 3.05973L20.6172 3.73461C16.9803 0.735148 11.9187 0.135255 7.64447 2.27237C7.45701 2.38485 7.38202 2.60981 7.4945 2.79728C7.60698 2.98475 7.79445 3.02224 7.98191 2.94725C11.9937 0.922614 16.7554 1.48501 20.2047 4.33451L19.4174 4.40949C19.2299 4.44699 19.0424 4.59696 19.0799 4.82192C19.1174 5.00939 19.2674 5.15936 19.4549 5.15936C19.4924 5.15936 19.5299 5.15936 21.1046 5.00939C21.3295 4.97189 21.4795 4.78443 21.442 4.59696Z" fill="white" stroke="white" stroke-width="1.5"/>
<path d="M23.0918 7.22115C22.9043 7.33363 22.8668 7.55859 22.9418 7.70856C24.854 11.2704 24.6665 15.5822 22.5294 18.9566L22.4544 18.3567C22.4169 18.1692 22.2669 18.0192 22.042 18.0192C21.8545 18.0567 21.667 18.2067 21.7045 18.4317L21.8545 20.0439C21.8545 20.1563 21.9295 20.2313 22.0045 20.3063C22.0795 20.3438 22.1545 20.3813 22.2294 20.3813C22.2669 20.3813 22.3419 20.3813 23.8791 20.2313C24.0666 20.1938 24.2541 20.0439 24.2166 19.8189C24.1791 19.5939 24.0291 19.4815 23.8042 19.4815L22.9793 19.5565C25.4164 15.9196 25.6413 11.2329 23.5792 7.33363C23.5042 7.18366 23.2793 7.10867 23.0918 7.22115Z" fill="white" stroke="white" stroke-width="1.5"/>
</svg>
