<svg width="23" height="23" viewBox="0 0 23 23" fill="none" xmlns="http://www.w3.org/2000/svg">
<g clip-path="url(#clip0_233_630)">
<path d="M11.4804 22.9902C9.35293 22.9902 7.23528 23 5.10783 22.9902C2.15685 22.9804 0.0195983 20.8441 0.00979435 17.9042C-9.574e-06 16.5126 -9.574e-06 15.1308 0.00979435 13.7393C0.00979435 12.9651 0.401951 12.5535 1.07842 12.5731C1.70587 12.5829 2.08823 13.0337 2.08823 13.7589C2.08823 15.1504 2.08823 16.5322 2.08823 17.9237C2.09803 19.6485 3.36274 20.9127 5.09803 20.9127C9.38234 20.9127 13.6569 20.9127 17.9412 20.9127C19.6372 20.9127 20.9118 19.6387 20.9216 17.9434C20.9314 16.542 20.9216 15.1308 20.9216 13.7295C20.9216 13.0141 21.3235 12.5731 21.9608 12.5633C22.6078 12.5633 23 12.9847 23 13.7099C23 15.2484 23.0294 16.7772 22.9804 18.3157C22.902 20.7951 20.7941 22.9118 18.3039 22.9706C16.0392 23.0294 13.7647 22.9804 11.4902 22.9804C11.4804 22.9804 11.4804 22.9902 11.4804 22.9902Z" fill="#61C532"/>
<path d="M10.4316 3.62587C10.2257 3.82187 10.108 3.91987 10.0002 4.03746C8.69627 5.34083 7.39235 6.6442 6.08843 7.94756C5.55902 8.47675 4.94137 8.50615 4.49039 8.04556C4.05902 7.60457 4.09823 6.98719 4.59823 6.4874C6.61784 4.46865 8.63745 2.44991 10.6571 0.431158C11.2159 -0.127427 11.7649 -0.127427 12.3237 0.421359C14.3629 2.44991 16.3924 4.47845 18.4218 6.5168C18.8924 6.99699 18.9218 7.61437 18.51 8.04556C18.0786 8.49635 17.4512 8.48655 16.9512 7.99656C15.6374 6.70299 14.3335 5.38983 13.0394 4.08646C12.912 3.95907 12.8237 3.80227 12.7159 3.66507C12.6669 3.68467 12.6178 3.71407 12.559 3.73367C12.559 3.90027 12.559 4.06686 12.559 4.23346C12.559 8.23175 12.559 12.2301 12.559 16.2283C12.559 16.3753 12.5688 16.5223 12.559 16.6693C12.5198 17.3455 12.108 17.7865 11.51 17.7963C10.8924 17.8061 10.4512 17.3455 10.4414 16.6497C10.4316 15.1798 10.4414 13.7098 10.4414 12.2399C10.4414 9.59392 10.4414 6.94799 10.4414 4.31186C10.4316 4.10606 10.4316 3.92967 10.4316 3.62587Z" fill="#61C532"/>
</g>
<defs>
<clipPath id="clip0_233_630">
<rect width="23" height="23" fill="white"/>
</clipPath>
</defs>
</svg>
