<svg width="24" height="23" viewBox="0 0 24 23" fill="none" xmlns="http://www.w3.org/2000/svg">
<path d="M11.4779 22.9811C9.35049 22.9811 7.23284 22.9909 5.10539 22.9811C2.15441 22.9713 0.0171569 20.835 0.00735294 17.8951C-0.00245098 16.5035 -0.00245098 15.1217 0.00735294 13.7302C0.00735294 12.956 0.39951 12.5444 1.07598 12.564C1.70343 12.5738 2.08578 13.0246 2.08578 13.7498C2.08578 15.1413 2.08578 16.5231 2.08578 17.9147C2.09559 19.6394 3.36029 20.9036 5.09559 20.9036C9.3799 20.9036 13.6544 20.9036 17.9387 20.9036C19.6348 20.9036 20.9093 19.6296 20.9191 17.9343C20.9289 16.5329 20.9191 15.1217 20.9191 13.7204C20.9191 13.005 21.3211 12.564 21.9583 12.5542C22.6054 12.5542 22.9976 12.9756 22.9976 13.7008C22.9976 15.2393 23.027 16.7681 22.9779 18.3066C22.8995 20.786 20.7917 22.9027 18.3015 22.9615C16.0368 23.0203 13.7623 22.9713 11.4877 22.9713C11.4779 22.9713 11.4779 22.9811 11.4779 22.9811Z" fill="white"/>
<path d="M10.4262 3.61489C10.2203 3.81088 10.1027 3.90888 9.99482 4.02648C8.6909 5.32984 7.38698 6.63321 6.08306 7.93658C5.55365 8.46576 4.936 8.49516 4.48502 8.03457C4.05365 7.59358 4.09286 6.9762 4.59286 6.47641C6.61247 4.45767 8.63208 2.43892 10.6517 0.420172C11.2105 -0.138413 11.7595 -0.138413 12.3184 0.410372C14.3576 2.43892 16.387 4.46747 18.4164 6.50581C18.887 6.986 18.9164 7.60338 18.5046 8.03457C18.0733 8.48536 17.4458 8.47556 16.9458 7.98557C15.6321 6.69201 14.3282 5.37884 13.034 4.07548C12.9066 3.94808 12.8184 3.79128 12.7105 3.65409C12.6615 3.67369 12.6125 3.70309 12.5536 3.72269C12.5536 3.88928 12.5536 4.05588 12.5536 4.22247C12.5536 8.22077 12.5536 12.2191 12.5536 16.2174C12.5536 16.3644 12.5635 16.5114 12.5536 16.6583C12.5144 17.3345 12.1027 17.7755 11.5046 17.7853C10.887 17.7951 10.4458 17.3345 10.436 16.6387C10.4262 15.1688 10.436 13.6988 10.436 12.2289C10.436 9.58293 10.436 6.937 10.436 4.30087C10.4262 4.09508 10.4262 3.91868 10.4262 3.61489Z" fill="white"/>
</svg>
