<svg width="23" height="23" viewBox="0 0 23 23" fill="none" xmlns="http://www.w3.org/2000/svg">
<path d="M4.43454 22.2165C5.2385 22.2165 6.0244 21.9781 6.69287 21.5314C7.36135 21.0848 7.88235 20.4499 8.19002 19.7072C8.49768 18.9644 8.57818 18.1471 8.42134 17.3586C8.26449 16.57 7.87735 15.8457 7.30886 15.2773C6.74037 14.7088 6.01607 14.3216 5.22756 14.1648C4.43904 14.0079 3.62173 14.0884 2.87896 14.3961C2.1362 14.7038 1.50135 15.2248 1.05469 15.8932C0.608031 16.5617 0.369629 17.3476 0.369629 18.1516C0.369629 19.2297 0.797894 20.2636 1.56021 21.0259C2.32253 21.7882 3.35645 22.2165 4.43454 22.2165ZM4.43454 16.3039C4.79997 16.3039 5.1572 16.4123 5.46105 16.6153C5.7649 16.8183 6.00173 17.1069 6.14157 17.4445C6.28142 17.7821 6.31801 18.1536 6.24672 18.512C6.17542 18.8705 5.99945 19.1997 5.74104 19.4581C5.48264 19.7165 5.15342 19.8925 4.795 19.9638C4.43658 20.0351 4.06508 19.9985 3.72746 19.8586C3.38984 19.7188 3.10127 19.4819 2.89824 19.1781C2.69521 18.8742 2.58685 18.517 2.58685 18.1516C2.58685 17.6615 2.78152 17.1916 3.12802 16.8451C3.47453 16.4986 3.9445 16.3039 4.43454 16.3039Z" fill="white"/>
<path d="M21.8027 4.84848C21.8027 4.04451 21.5643 3.25861 21.1176 2.59014C20.6709 1.92167 20.0361 1.40066 19.2933 1.09299C18.5506 0.785331 17.7332 0.704832 16.9447 0.861677C16.1562 1.01852 15.4319 1.40567 14.8634 1.97415C14.2949 2.54264 13.9078 3.26694 13.751 4.05545C13.5941 4.84397 13.6746 5.66128 13.9823 6.40405C14.2899 7.14681 14.8109 7.78166 15.4794 8.22832C16.1479 8.67498 16.9338 8.91338 17.7378 8.91338C18.8158 8.91338 19.8498 8.48512 20.6121 7.7228C21.3744 6.96048 21.8027 5.92656 21.8027 4.84848ZM15.8901 4.84848C15.8901 4.48304 15.9984 4.12581 16.2015 3.82196C16.4045 3.51811 16.6931 3.28129 17.0307 3.14144C17.3683 3.00159 17.7398 2.965 18.0982 3.03629C18.4566 3.10759 18.7859 3.28356 19.0443 3.54197C19.3027 3.80037 19.4786 4.1296 19.5499 4.48801C19.6212 4.84643 19.5846 5.21794 19.4448 5.55556C19.305 5.89318 19.0681 6.18174 18.7643 6.38477C18.4604 6.5878 18.1032 6.69616 17.7378 6.69616C17.2477 6.69616 16.7778 6.50149 16.4312 6.15499C16.0847 5.80848 15.8901 5.33851 15.8901 4.84848Z" fill="white"/>
<path d="M11.0417 18.9351L15.1067 23L16.6735 21.4332L14.5006 19.2603H18.1073C18.6411 19.2603 19.1697 19.1552 19.6629 18.9509C20.156 18.7466 20.6042 18.4472 20.9816 18.0697C21.3591 17.6923 21.6585 17.2441 21.8628 16.751C22.0671 16.2578 22.1722 15.7292 22.1722 15.1954V11.1305H19.955V15.1954C19.955 15.6854 19.7603 16.1554 19.4138 16.5019C19.0673 16.8484 18.5973 17.0431 18.1073 17.0431H14.5006L16.6735 14.8702L15.1067 13.3034L11.0417 17.3683C10.8341 17.5761 10.7175 17.8579 10.7175 18.1517C10.7175 18.4455 10.8341 18.7272 11.0417 18.9351Z" fill="white"/>
<path d="M0 7.80462V11.8695H2.21722V7.80462C2.21722 7.31458 2.41189 6.84462 2.7584 6.49811C3.1049 6.1516 3.57487 5.95693 4.06491 5.95693H7.67159L5.49871 8.12981L7.06554 9.69665L11.1305 5.63174C11.3381 5.42388 11.4547 5.14211 11.4547 4.84832C11.4547 4.55454 11.3381 4.27277 11.1305 4.06491L7.06554 0L5.49871 1.56684L7.67159 3.73971H4.06491C2.98683 3.73971 1.9529 4.16798 1.19058 4.9303C0.428265 5.69261 0 6.72654 0 7.80462Z" fill="white"/>
</svg>
