<svg width="25" height="23" viewBox="0 0 25 23" fill="none" xmlns="http://www.w3.org/2000/svg">
<path d="M12.5562 0C15.7702 0 18.9842 0.0112755 22.2097 0C23.3889 0 24.2675 0.462294 24.7531 1.51091C25.2387 2.57081 24.9843 3.51795 24.1982 4.36361C21.5276 7.2163 18.857 10.0915 16.1748 12.9442C15.8627 13.2712 15.7239 13.5869 15.7239 14.038C15.7471 15.4474 15.7239 16.8568 15.7471 18.2663C15.7471 18.7173 15.6083 19.0443 15.2384 19.3262C13.8048 20.4311 12.3828 21.5474 10.9493 22.6637C10.6024 22.9343 10.244 23.126 9.79315 22.9005C9.35383 22.675 9.26134 22.3029 9.26134 21.8631C9.2729 19.2359 9.2729 16.5975 9.24978 13.9703C9.24978 13.6546 9.09949 13.2712 8.89139 13.0344C6.20924 10.1366 3.51552 7.25013 0.810245 4.36361C0.0240959 3.51795 -0.241807 2.57081 0.243755 1.52219C0.740879 0.462294 1.61952 0 2.78718 0C6.04738 0.0112755 9.30759 0 12.5562 0ZM11.1111 20.2169C11.9897 19.5291 12.7759 18.9428 13.5274 18.3001C13.7239 18.131 13.8742 17.8152 13.8742 17.5559C13.9089 16.2028 13.9089 14.8498 13.8857 13.4967C13.8742 12.9442 14.0476 12.5383 14.4291 12.1437C17.2038 9.20078 19.9553 6.22406 22.7068 3.26989C22.9727 2.97672 23.2848 2.69484 23.0536 2.23254C22.834 1.7928 22.4293 1.80407 22.0131 1.80407C15.6546 1.80407 9.30759 1.80407 2.94903 1.80407C2.52127 1.80407 2.1282 1.82663 1.93166 2.27764C1.74669 2.70611 2.02415 2.988 2.29005 3.26989C5.08782 6.26916 7.89714 9.26843 10.6718 12.2903C10.9261 12.5609 11.0995 13.0119 11.1111 13.384C11.1342 15.6052 11.1111 17.8378 11.1111 20.2169Z" fill="white"/>
</svg>
