<svg width="48" height="48" viewBox="0 0 48 48" fill="none" xmlns="http://www.w3.org/2000/svg">
<circle cx="24" cy="24" r="24" fill="#E65839"/>
<path d="M36.0455 25.2958C36.0455 30.4769 31.0125 34.8185 24.6137 34.8185C18.2148 34.8185 13.1819 30.4769 13.1819 25.2958C13.1819 20.1147 18.2148 15.7731 24.6137 15.7731C31.0125 15.7731 36.0455 20.1147 36.0455 25.2958Z" stroke="white"/>
<ellipse cx="24.6138" cy="33.4092" rx="5.24999" ry="4.77271" fill="white"/>
<path d="M27.0003 34.5006C27.0003 35.1031 25.9318 36.2733 24.6139 36.2733C23.2959 36.2733 22.2275 35.1031 22.2275 34.5006C22.2275 33.8981 23.2959 33.4097 24.6139 33.4097C25.9318 33.4097 27.0003 33.8981 27.0003 34.5006Z" fill="black"/>
<path d="M32.2308 15.6423C30.8995 16.8955 32.7856 19.0127 33.895 19.9146C34.2022 20.1821 34.5892 21.3967 35.1012 21.9664C35.6132 22.536 36.1957 22.956 36.4552 22.9053C38.9415 22.4186 38.4294 20.6847 38.3753 19.9146C38.298 18.8141 36.8819 17.2088 36.0711 16.6392C34.8423 15.6139 33.3091 14.7566 32.2308 15.6423Z" stroke="white"/>
<path d="M17.8859 15.6423C19.4074 16.8955 17.2519 19.0127 15.984 19.9146C15.6329 20.1821 15.1907 21.3967 14.6055 21.9664C14.0203 22.536 13.3546 22.956 13.0581 22.9053C10.2166 22.4186 10.8018 20.6847 10.8636 19.9146C10.952 18.8141 12.5704 17.2088 13.497 16.6392C14.9014 15.6139 16.6536 14.7566 17.8859 15.6423Z" stroke="white"/>
<circle cx="29.7626" cy="26.593" r="1.34759" fill="white" fill-opacity="0.33"/>
<circle cx="29.3584" cy="26.1891" r="0.673795" fill="black"/>
<path d="M13.0725 26.427C12.6261 26.3074 12.2091 26.0972 11.8474 25.8096C11.4857 25.5219 11.1871 25.1629 10.9701 24.755C10.753 24.347 10.6223 23.8987 10.5859 23.438C10.5495 22.9773 10.6083 22.5141 10.7586 22.0771C10.9089 21.6401 11.1475 21.2387 11.4596 20.8978C11.7717 20.557 12.1505 20.284 12.5726 20.0958C12.9946 19.9076 13.4509 19.8083 13.913 19.804C14.3751 19.7997 14.8332 19.8905 15.2587 20.0708L13.9444 23.1728L13.0725 26.427Z" fill="white" stroke="white"/>
<circle cx="19.7905" cy="26.593" r="1.34759" fill="white" fill-opacity="0.33"/>
<circle cx="19.3862" cy="26.1891" r="0.673795" fill="black"/>
<path d="M14.4771 21.7413L13.3113 25.4902C12.2072 29.0409 13.6952 32.8843 16.9025 34.7659L19.6492 36.3772" stroke="white" stroke-width="0.7"/>
<circle cx="19.841" cy="36.7508" r="1.43181" fill="white"/>
</svg>
