<svg width="16" height="19" viewBox="0 0 16 19" fill="none" xmlns="http://www.w3.org/2000/svg">
<path d="M13.0451 3.10549C11.7125 1.74722 9.94013 1 8.05697 1C6.1738 1 4.39816 1.74722 3.06561 3.10549C1.73306 4.46376 1 6.27037 1 8.18988C1 12.0754 4.60342 15.3067 6.54197 17.0436C6.81239 17.286 7.04371 17.4919 7.22942 17.6679C7.46074 17.8904 7.76048 18 8.05697 18C8.35345 18 8.65319 17.8904 8.88451 17.6679C9.07022 17.4919 9.30155 17.2827 9.57196 17.0436C11.5073 15.3067 15.1139 12.0754 15.1139 8.18988C15.1107 6.27037 14.3776 4.46376 13.0451 3.10549ZM8.92361 16.2997C8.64993 16.5454 8.41209 16.758 8.21661 16.9473C8.12538 17.0336 7.98529 17.0336 7.89732 16.9473C7.70184 16.7613 7.464 16.5487 7.19032 16.2997C5.3658 14.6658 1.97742 11.6271 1.97742 8.18988C1.97742 4.77593 4.70442 1.99629 8.05371 1.99629C11.4063 1.99629 14.1333 4.77593 14.1333 8.1932C14.1333 11.6271 10.7449 14.6658 8.92361 16.2997Z" fill="white" stroke="white" stroke-width="0.5"/>
<path d="M8.05668 4.74951C6.34294 4.74951 4.94849 6.17088 4.94849 7.91771C4.94849 9.66454 6.34294 11.0859 8.05668 11.0859C9.77042 11.0859 11.1649 9.66786 11.1649 7.92103C11.1649 6.1742 9.77042 4.74951 8.05668 4.74951ZM8.05668 10.0929C6.88052 10.0929 5.9259 9.11658 5.9259 7.92103C5.9259 6.72548 6.88377 5.74912 8.05668 5.74912C9.22958 5.74912 10.1874 6.72548 10.1874 7.92103C10.1874 9.11658 9.22958 10.0929 8.05668 10.0929Z" fill="white" stroke="white" stroke-width="0.5"/>
</svg>
