<svg width="36" height="47" viewBox="0 0 36 47" fill="none" xmlns="http://www.w3.org/2000/svg">
<path d="M15.4763 39.8631C18.329 39.8631 21.1818 39.8631 24.0346 39.8631C28.4088 39.8476 31.6073 36.4048 30.8985 32.5432C29.9648 27.4874 29.0485 22.4161 28.1667 17.3449C27.285 12.2271 22.6341 8.17938 16.9632 7.62107C9.97823 6.9387 3.80589 11.2966 2.76852 17.562C1.93863 22.5867 1.02229 27.596 0.0886555 32.6052C-0.585634 36.2807 2.68208 39.8321 6.81426 39.8476C9.7016 39.8787 12.5889 39.8631 15.4763 39.8631ZM15.338 37.3818C12.5198 37.3818 9.68431 37.3818 6.86612 37.3818C4.04794 37.3663 2.1461 35.3347 2.61292 32.8378C3.58113 27.6735 4.53205 22.5092 5.51755 17.3604C6.29557 13.2817 10.4969 10.1179 15.1478 10.0869C20.0407 10.0404 24.3804 13.0335 25.193 17.2053C26.213 22.4627 27.1121 27.7355 28.0111 33.0084C28.4261 35.4122 26.4378 37.3663 23.7061 37.3818C20.9397 37.3973 18.1389 37.3818 15.338 37.3818Z" fill="black"/>
<circle cx="24.001" cy="12" r="12" fill="#F82727"/>
<path d="M27.386 9.285H22.706V11.355C22.906 11.135 23.186 10.955 23.546 10.815C23.906 10.675 24.296 10.605 24.716 10.605C25.466 10.605 26.086 10.775 26.576 11.115C27.076 11.455 27.441 11.895 27.671 12.435C27.901 12.975 28.016 13.56 28.016 14.19C28.016 15.36 27.686 16.29 27.026 16.98C26.366 17.66 25.436 18 24.236 18C23.436 18 22.741 17.865 22.151 17.595C21.561 17.315 21.106 16.93 20.786 16.44C20.466 15.95 20.291 15.385 20.261 14.745H22.766C22.826 15.055 22.971 15.315 23.201 15.525C23.431 15.725 23.746 15.825 24.146 15.825C24.616 15.825 24.966 15.675 25.196 15.375C25.426 15.075 25.541 14.675 25.541 14.175C25.541 13.685 25.421 13.31 25.181 13.05C24.941 12.79 24.591 12.66 24.131 12.66C23.791 12.66 23.511 12.745 23.291 12.915C23.071 13.075 22.926 13.29 22.856 13.56H20.381V7.035H27.386V9.285Z" fill="white"/>
<circle cx="15.001" cy="44" r="3" fill="black"/>
<path d="M15.4763 39.8631C18.329 39.8631 21.1818 39.8631 24.0346 39.8631C28.4088 39.8476 31.6073 36.4048 30.8985 32.5432C29.9648 27.4874 29.0485 22.4161 28.1667 17.3449C27.285 12.2271 22.6341 8.17938 16.9632 7.62107C9.97823 6.9387 3.80589 11.2966 2.76852 17.562C1.93863 22.5867 1.02229 27.596 0.0886555 32.6052C-0.585634 36.2807 2.68208 39.8321 6.81426 39.8476C9.7016 39.8787 12.5889 39.8631 15.4763 39.8631ZM15.338 37.3818C12.5198 37.3818 9.68431 37.3818 6.86612 37.3818C4.04794 37.3663 2.1461 35.3347 2.61292 32.8378C3.58113 27.6735 4.53205 22.5092 5.51755 17.3604C6.29557 13.2817 10.4969 10.1179 15.1478 10.0869C20.0407 10.0404 24.3804 13.0335 25.193 17.2053C26.213 22.4627 27.1121 27.7355 28.0111 33.0084C28.4261 35.4122 26.4378 37.3663 23.7061 37.3818C20.9397 37.3973 18.1389 37.3818 15.338 37.3818Z" fill="white"/>
<circle cx="24.001" cy="12" r="12" fill="#F82727"/>
<path d="M27.386 9.285H22.706V11.355C22.906 11.135 23.186 10.955 23.546 10.815C23.906 10.675 24.296 10.605 24.716 10.605C25.466 10.605 26.086 10.775 26.576 11.115C27.076 11.455 27.441 11.895 27.671 12.435C27.901 12.975 28.016 13.56 28.016 14.19C28.016 15.36 27.686 16.29 27.026 16.98C26.366 17.66 25.436 18 24.236 18C23.436 18 22.741 17.865 22.151 17.595C21.561 17.315 21.106 16.93 20.786 16.44C20.466 15.95 20.291 15.385 20.261 14.745H22.766C22.826 15.055 22.971 15.315 23.201 15.525C23.431 15.725 23.746 15.825 24.146 15.825C24.616 15.825 24.966 15.675 25.196 15.375C25.426 15.075 25.541 14.675 25.541 14.175C25.541 13.685 25.421 13.31 25.181 13.05C24.941 12.79 24.591 12.66 24.131 12.66C23.791 12.66 23.511 12.745 23.291 12.915C23.071 13.075 22.926 13.29 22.856 13.56H20.381V7.035H27.386V9.285Z" fill="white"/>
<circle cx="15.001" cy="44" r="3" fill="white"/>
</svg>
