<svg width="16" height="16" viewBox="0 0 16 16" fill="none" xmlns="http://www.w3.org/2000/svg">
<path d="M7.04722 0C3.16266 0 0 3.16312 0 7.04825C0 10.9334 3.16266 14.0965 7.04722 14.0965C10.9318 14.0965 14.0944 10.9365 14.0944 7.04825C14.0913 3.16312 10.9318 0 7.04722 0ZM7.04722 12.7931C3.87832 12.7931 1.30319 10.2145 1.30319 7.04825C1.30319 3.88201 3.87832 1.30025 7.04722 1.30025C10.2161 1.30025 12.7913 3.87888 12.7913 7.04512C12.7913 10.2114 10.213 12.7931 7.04722 12.7931Z" fill="#B6B6B6"/>
<path d="M15.8102 14.8935L12.0819 11.1616C11.8288 10.9084 11.4163 10.9084 11.1631 11.1616C10.91 11.4147 10.91 11.8273 11.1631 12.0805L14.8914 15.8093C15.0196 15.9375 15.1852 16 15.3508 16C15.5165 16 15.6821 15.9375 15.8102 15.8093C16.0634 15.5593 16.0634 15.1467 15.8102 14.8935Z" fill="#B6B6B6"/>
</svg>
